<svg width="28" height="28" viewBox="0 0 28 28" fill="none" xmlns="http://www.w3.org/2000/svg">
<path d="M3.5 0.5H24.5C25.2956 0.5 26.0587 0.81607 26.6213 1.37868C27.1839 1.94129 27.5 2.70435 27.5 3.5V24.5C27.5 25.2956 27.1839 26.0587 26.6213 26.6213C26.0587 27.1839 25.2956 27.5 24.5 27.5H3.5C2.70435 27.5 1.94129 27.1839 1.37868 26.6213C0.81607 26.0587 0.5 25.2956 0.5 24.5V3.5C0.5 2.70435 0.81607 1.94129 1.37868 1.37868C1.94129 0.81607 2.70435 0.5 3.5 0.5ZM23 3.5H19.25C17.8576 3.5 16.5223 4.05312 15.5377 5.03769C14.5531 6.02226 14 7.35761 14 8.75V12.5H11V17H14V27.5H18.5V17H23V12.5H18.5V9.5C18.5 9.10218 18.658 8.72064 18.9393 8.43934C19.2206 8.15804 19.6022 8 20 8H23V3.5Z" fill="white"/>
</svg>
