<svg width="27" height="28" viewBox="0 0 27 28" fill="none" xmlns="http://www.w3.org/2000/svg">
<path fill-rule="evenodd" clip-rule="evenodd" d="M23.1908 9.62525C23.6558 8.81966 24.6864 8.54396 25.4911 9.00855C26.2965 9.47347 26.5716 10.5027 26.107 11.3091L19.2746 23.212C14.4009 31.6534 6.07872 26.3634 6.07872 26.3634C1.7218 23.848 1.12294 17.43 1.12294 17.43C1.12294 17.43 0.364143 12.4585 0.250035 10.6692C0.215027 10.1227 0.146083 9.69271 0.0894359 9.33942C-0.0634092 8.3859 -0.126631 7.99144 0.808424 7.37433C2.57587 6.20892 3.9051 8.18708 3.9051 8.18708C3.9051 8.18708 4.66567 9.22184 5.32125 12.5968C5.57683 13.9137 5.96214 13.4282 5.96214 13.4282L12.8608 1.47929C13.3256 0.674299 14.2063 0.509488 15.0119 0.974596C15.8169 1.43934 16.1561 2.3081 15.6912 3.11336L10.9707 11.2894C10.9707 11.2894 10.9661 11.2974 10.9593 11.3119L7.5078 17.2901C7.32666 17.0683 7.09309 16.8674 6.81551 16.7071C5.8696 16.161 4.77073 16.2934 4.36116 17.0028C3.95155 17.7123 4.38634 18.7301 5.33225 19.2762C6.27813 19.8223 7.37696 19.69 7.78657 18.9806H7.7866L11.9057 11.8461C11.9113 11.8385 11.9142 11.8341 11.9142 11.8341L18.2683 0.828324C18.7329 0.0236259 19.698 -0.234464 20.5032 0.23046C21.3082 0.695199 21.5619 1.65703 21.0974 2.46173L14.7435 13.4672C14.7435 13.4672 14.5096 13.9468 14.9389 14.1947C15.3716 14.4445 15.6872 14.0121 15.6872 14.0121L21.1336 4.57888C21.5985 3.77363 22.5324 3.47987 23.3382 3.94494C24.1428 4.40953 24.4283 5.40751 23.9634 6.2128L18.5169 15.6465C18.5169 15.6465 18.5113 15.6556 18.5031 15.6718L15.7524 20.436C15.5656 20.1918 15.3163 19.9701 15.0153 19.7963C14.0694 19.2502 12.9705 19.3826 12.5609 20.092C12.1513 20.8014 12.5861 21.8193 13.532 22.3654C14.4379 22.8884 15.484 22.7891 15.9307 22.1567L15.9348 22.159L15.9841 22.0735L15.9864 22.0697L15.9885 22.0659L21.0974 13.2168L23.1908 9.62525Z" fill="#828EFF"/>
</svg>
