<svg width="151" height="30" viewBox="0 0 151 30" fill="none" xmlns="http://www.w3.org/2000/svg">
<path d="M48.5482 22.1363C47.6494 22.1363 47.2771 22.0129 47.1223 21.8895C46.9051 21.7352 46.8121 21.5192 46.7503 21.2107C46.7503 21.0873 46.6573 21.0256 46.5643 20.9947C46.5331 20.9947 46.5331 20.9947 46.5022 20.9947C46.4092 20.9947 46.3471 21.0256 46.2853 21.1181C45.7891 21.8278 44.9833 22.1363 43.8361 22.1363C42.6582 22.1363 41.5731 21.5809 40.5501 20.5011C39.5271 19.4212 39 18.1562 39 16.7061C39 15.2869 39.5271 14.0219 40.5501 12.942C41.5731 11.8621 42.6891 11.3376 43.8982 11.3376C44.3632 11.3376 44.7661 11.4302 45.1381 11.5844C45.6031 11.7696 45.8203 11.9239 45.9133 12.0164C46.0681 12.1398 46.1923 12.2941 46.2853 12.4175C46.3471 12.4792 46.4092 12.5409 46.5022 12.5409C46.5331 12.5409 46.5331 12.5409 46.5643 12.5409C46.6573 12.51 46.7503 12.4175 46.7503 12.3249C46.7812 11.893 46.9981 11.3376 48.2074 11.3376C48.7342 11.3376 49.1374 11.3685 49.3853 11.461C49.6024 11.5227 49.7264 11.6462 49.8194 11.7696C49.9124 11.9547 49.9745 12.109 49.9745 12.2632C50.0054 12.4175 50.0054 12.6643 50.0054 12.9729V20.5011C50.0054 20.8096 50.0054 21.0564 49.9745 21.2107C49.9433 21.3341 49.9124 21.5192 49.8194 21.7043C49.6643 21.982 49.2304 22.1363 48.5482 22.1363ZM44.4562 14.5772C43.8052 14.5772 43.2781 14.8241 42.8752 15.2869C42.4722 15.7497 42.2862 16.2433 42.2862 16.7678C42.2862 17.3232 42.5031 17.8168 42.9372 18.2488C43.3711 18.6807 43.8982 18.8967 44.4871 18.8967C45.1072 18.8967 45.6031 18.6807 46.0063 18.2179C46.4092 17.786 46.5952 17.2923 46.5952 16.7678C46.5952 16.2433 46.4092 15.7497 46.0372 15.2869C45.6343 14.7932 45.1072 14.5772 44.4562 14.5772Z" fill="black"/>
<path d="M53.0376 22.1671C52.4175 22.1671 51.9525 22.0746 51.7044 21.8586C51.5496 21.7043 51.4254 21.4575 51.4254 21.1181V12.942C51.4254 12.6335 51.4254 12.3866 51.4566 12.2324C51.4875 12.109 51.5184 11.9238 51.6114 11.7696C51.7665 11.4919 52.2624 11.3376 53.0685 11.3376C54.0297 11.3376 54.3706 11.5536 54.4636 11.7079C54.5877 11.893 54.6496 12.0781 54.6496 12.2632C54.6496 12.3866 54.7117 12.4792 54.8356 12.51C54.8667 12.51 54.8977 12.51 54.9286 12.51C55.0216 12.51 55.0837 12.4792 55.1458 12.3866C55.2076 12.2941 55.3006 12.1707 55.4248 12.0473C55.5178 11.9547 55.7038 11.8004 56.2306 11.5227C56.6338 11.3068 57.0058 11.1834 57.2848 11.1834C57.5947 11.1834 57.8737 11.2142 58.0909 11.2451C58.3078 11.2759 58.5559 11.3376 58.8037 11.4302C59.0209 11.4919 59.2069 11.6153 59.3617 11.8004C59.4859 11.9547 59.5789 12.2324 59.5789 12.6335C59.5789 13.0654 59.4547 13.5282 59.2069 14.0219C58.9897 14.4846 58.6798 14.7006 58.2457 14.7006C58.0288 14.7006 57.8119 14.6389 57.6256 14.5464C57.3466 14.4229 57.0058 14.3612 56.5717 14.3612C56.1067 14.3612 55.7038 14.5155 55.3006 14.824C54.8977 15.1634 54.6807 15.5645 54.6807 16.0273V20.5628C54.6807 20.8713 54.6807 21.1181 54.6496 21.2724C54.6186 21.3958 54.5877 21.5809 54.4636 21.766C54.3396 22.0129 53.8437 22.1671 53.0376 22.1671Z" fill="black"/>
<path d="M66.55 22.1672C65.1241 22.1672 64.0081 21.8586 63.295 21.2107C62.5819 20.5936 62.2099 19.5138 62.2099 17.9711V14.7932C62.2099 14.7315 62.179 14.639 62.1169 14.6081C62.0548 14.5773 61.993 14.5464 61.9309 14.5464H61.9C61.6519 14.5773 61.342 14.6081 61.063 14.6081C60.8149 14.6081 60.6289 14.5155 60.4738 14.3304C60.319 14.1453 60.226 13.7751 60.226 13.2505C60.226 12.6952 60.2569 12.2632 60.319 12.0473C60.3808 11.7696 60.4738 11.6462 60.5359 11.6153C60.7219 11.4611 60.9388 11.3994 61.2178 11.3994L61.9309 11.4919H61.9618C62.0239 11.4919 62.086 11.4611 62.1478 11.4302C62.2099 11.3685 62.2408 11.3068 62.2408 11.2451V8.96194C62.2408 8.65341 62.2408 8.40658 62.272 8.25232C62.3029 8.12889 62.3338 8.00549 62.4268 7.85124C62.5819 7.57355 63.0781 7.45012 63.8839 7.45012C64.7521 7.45012 65.248 7.6661 65.4031 8.06719C65.434 8.19062 65.4961 8.49915 65.4961 9.08534V11.2142C65.4961 11.2759 65.527 11.3685 65.5891 11.3994C65.6509 11.4302 65.713 11.4611 65.7751 11.4611H65.806C66.4261 11.3994 66.9221 11.3685 67.232 11.3685C67.5422 11.3685 67.79 11.3685 67.9451 11.3994C68.069 11.4302 68.255 11.4611 68.441 11.5845C68.7203 11.7079 68.8751 12.2324 68.8751 13.0037C68.8751 13.7751 68.7203 14.2687 68.441 14.423C68.255 14.5155 68.1002 14.5464 67.9451 14.5773C67.79 14.6081 67.5422 14.6081 67.232 14.6081C67.232 14.6081 65.8369 14.5155 65.806 14.5155C65.7439 14.5155 65.6821 14.5464 65.62 14.5773C65.5579 14.639 65.527 14.7007 65.527 14.7624V17.7552C65.527 18.2179 65.5891 18.5265 65.7751 18.7425C65.9611 18.9893 66.2401 19.1127 66.674 19.1127C67.0151 19.1127 67.2632 19.1127 67.418 19.1435C67.5731 19.1744 67.7282 19.2052 67.883 19.3287C68.1311 19.4521 68.255 19.884 68.255 20.5628C68.255 21.1182 68.162 21.7969 67.79 21.9821C67.604 22.0746 67.4492 22.1363 67.2941 22.1363C67.1081 22.1672 66.86 22.1672 66.55 22.1672Z" fill="black"/>
<path d="M71.5682 22.1672C70.7933 22.1672 70.2974 22.0129 70.1423 21.7352C70.0493 21.5501 70.0184 21.3958 69.9872 21.2724C69.9563 21.1181 69.9563 20.8713 69.9563 20.5628V12.942C69.9563 12.6335 69.9563 12.3866 69.9872 12.2324C70.0184 12.109 70.0493 11.9239 70.1423 11.7387C70.2974 11.461 70.7933 11.3376 71.5994 11.3376C72.2192 11.3376 72.6533 11.4302 72.9014 11.6462C73.0874 11.8004 73.1804 12.0473 73.2113 12.3866C73.2113 12.5409 73.2425 12.7569 73.2425 13.0037V20.5628C73.2425 20.8713 73.2423 21.1181 73.2113 21.2724C73.1804 21.3958 73.1493 21.5809 73.0253 21.766C72.8703 22.0129 72.3743 22.1672 71.5682 22.1672ZM71.5994 9.2396C71.1653 9.2396 70.8242 9.20875 70.5764 9.11619C70.3592 9.05449 70.2353 8.96191 70.1423 8.80766C70.0493 8.62253 69.9872 8.46827 69.9872 8.31399C69.9563 8.15974 69.9563 7.91291 69.9563 7.60437C69.9563 7.29584 69.9563 7.04901 69.9872 6.89475C70.0184 6.77132 70.0493 6.58622 70.1423 6.43194C70.2974 6.15425 70.7933 6 71.5994 6C72.3743 6 72.8703 6.15425 73.0253 6.43194C73.1183 6.61707 73.1804 6.8022 73.2113 6.9256C73.2423 7.07986 73.2425 7.32669 73.2425 7.63522C73.2425 7.94376 73.2423 8.19059 73.2113 8.34484C73.1804 8.46827 73.1493 8.65338 73.0563 8.80766C72.9944 8.96191 72.8393 9.05449 72.6224 9.11619C72.3434 9.20875 72.0023 9.2396 71.5994 9.2396Z" fill="black"/>
<path d="M78.5068 22.3523C77.1736 22.3523 75.8715 21.9512 74.6316 21.1799C74.4456 21.0565 74.3526 20.8714 74.3526 20.5937C74.3526 20.3777 74.4765 19.9149 75.1275 19.051C75.1896 18.9276 75.3444 18.8042 75.6855 18.8042C75.9024 18.8042 76.3056 18.8967 76.9875 19.2978C77.6386 19.6681 78.2278 19.8532 78.7546 19.8532C79.1578 19.8532 80.3356 19.8532 80.3356 19.0818C80.3356 18.5265 79.4986 18.3414 78.6616 18.2179C77.7937 18.0945 76.9254 17.7552 76.0575 17.2306C75.6855 17.0147 75.3756 16.6136 75.1275 16.1199C74.8794 15.5954 74.7555 14.9783 74.7555 14.2687C74.7555 12.1398 76.2126 11.1217 79.1887 11.1217C80.1808 11.1217 81.2038 11.3685 82.2577 11.8313C82.6606 12.0164 82.8778 12.2324 82.8778 12.4484C82.8778 12.7569 82.7227 13.1271 82.4437 13.59C82.2577 13.8676 81.9787 14.2379 81.6997 14.2379C81.6376 14.2379 81.4207 14.207 80.8318 13.9293C80.3356 13.7134 79.7776 13.59 79.1887 13.59C78.8167 13.59 77.6386 13.59 77.6386 14.3304C77.6386 15.1943 78.9097 15.3795 79.3438 15.4412C80.2738 15.5337 81.1726 15.8114 82.0408 16.2433C82.4128 16.4285 82.7227 16.737 82.9708 17.1998C83.2186 17.6626 83.3737 18.2488 83.3737 18.9276C83.3737 19.6372 83.2498 20.2234 82.9708 20.7171C82.7227 21.2107 82.3507 21.5501 81.8857 21.797C80.9866 22.1363 79.8397 22.3523 78.5068 22.3523Z" fill="black"/>
<path d="M90.1281 22.1672C88.7021 22.1672 87.5861 21.8586 86.873 21.2107C86.1599 20.5936 85.7879 19.5138 85.7879 17.9711V14.7932C85.7879 14.7315 85.757 14.639 85.6949 14.6081C85.6331 14.5773 85.571 14.5464 85.5089 14.5464H85.478C85.2299 14.5773 84.92 14.6081 84.641 14.6081C84.3929 14.6081 84.2069 14.5155 84.0521 14.3304C83.897 14.1453 83.804 13.7751 83.804 13.2505C83.804 12.6952 83.8349 12.2632 83.897 12.0473C83.959 11.7696 84.0521 11.6462 84.1139 11.6153C84.2999 11.4611 84.5171 11.3994 84.7961 11.3994L85.5089 11.4919H85.5401C85.6019 11.4919 85.664 11.4611 85.7261 11.4302C85.7879 11.3685 85.8191 11.3068 85.8191 11.2451V8.96194C85.8191 8.65341 85.8191 8.40658 85.85 8.25232C85.8809 8.12889 85.9121 8.00549 86.0051 7.85124C86.1599 7.57355 86.6561 7.45012 87.4619 7.45012C88.3301 7.45012 88.826 7.6661 88.9811 8.06719C89.012 8.19062 89.0741 8.49915 89.0741 9.08534V11.2142C89.0741 11.2759 89.105 11.3685 89.1671 11.3994C89.2292 11.4302 89.291 11.4611 89.3531 11.4611H89.384C90.0041 11.3994 90.5001 11.3685 90.8103 11.3685C91.1202 11.3685 91.3683 11.3685 91.5231 11.3994C91.6473 11.4302 91.8333 11.4611 92.0193 11.5845C92.2983 11.7079 92.4531 12.2324 92.4531 13.0037C92.4531 13.7751 92.2983 14.2687 92.0193 14.423C91.8333 14.5155 91.6782 14.5464 91.5231 14.5773C91.3683 14.6081 91.1202 14.6081 90.8103 14.6081L89.4152 14.5155C89.3531 14.5155 89.291 14.5464 89.2292 14.5773C89.1671 14.639 89.1362 14.7007 89.1362 14.7624V17.7552C89.1362 18.2179 89.198 18.5265 89.384 18.7425C89.57 18.9893 89.8802 19.1127 90.2831 19.1127C90.6242 19.1127 90.8721 19.1127 91.0272 19.1435C91.1823 19.1744 91.3371 19.2052 91.4922 19.3287C91.7403 19.4521 91.8642 19.884 91.8642 20.5628C91.8642 21.1182 91.7712 21.7969 91.3992 21.9821C91.2132 22.0746 91.0581 22.1363 90.9033 22.1363C90.6861 22.1672 90.4382 22.1672 90.1281 22.1672Z" fill="black"/>
<path d="M99.1494 27.0728C98.0952 27.0728 97.0722 26.8261 96.1422 26.3016C94.9644 25.6845 94.7784 25.2833 94.7784 25.0982C94.7784 24.6045 94.9644 24.1726 95.3673 23.8024C95.6463 23.4938 95.8323 23.3087 95.9874 23.1853C96.0804 23.0928 96.2043 23.0619 96.3594 23.0619C96.5142 23.0619 96.6693 23.1236 96.8244 23.2779C97.5684 23.8332 98.3742 24.1418 99.2424 24.1418C99.8625 24.1418 100.389 23.8949 100.793 23.4013C101.165 22.9385 101.381 22.3523 101.381 21.6735V21.0256C101.381 20.9022 101.319 20.8096 101.195 20.7787C101.165 20.7787 101.133 20.7787 101.102 20.7787C101.009 20.7787 100.947 20.8096 100.886 20.8713C100.389 21.5192 99.5835 21.8586 98.4672 21.8586C97.3512 21.8586 96.2664 21.3341 95.2743 20.2851C94.2822 19.2361 93.7863 18.002 93.7863 16.6135C93.7863 15.2251 94.2822 13.991 95.3052 12.942C96.2973 11.893 97.4133 11.3685 98.5914 11.3685C99.0564 11.3685 99.4593 11.461 99.8313 11.6153C100.296 11.8313 100.514 11.9856 100.575 12.0473C100.7 12.1707 100.823 12.3249 100.886 12.4175C100.947 12.4792 101.009 12.5409 101.102 12.5409C101.133 12.5409 101.133 12.5409 101.165 12.5409C101.258 12.51 101.351 12.4175 101.351 12.3249C101.381 11.9856 101.505 11.7387 101.691 11.5844C101.909 11.4302 102.249 11.3376 102.746 11.3376C103.272 11.3376 103.676 11.3685 103.892 11.461C104.079 11.5227 104.234 11.6153 104.295 11.7696C104.388 11.9547 104.451 12.109 104.451 12.2324C104.481 12.3866 104.481 12.6026 104.481 12.942V21.8895C104.481 23.463 103.923 24.7278 102.839 25.6845C101.784 26.5792 100.514 27.0728 99.1494 27.0728ZM99.0873 14.4538C98.4363 14.4538 97.9092 14.6698 97.5372 15.1326C97.1343 15.5645 96.9483 16.0582 96.9483 16.5827C96.9483 17.1072 97.1652 17.6008 97.5684 18.0328C98.0022 18.4647 98.4984 18.6807 99.0873 18.6807C99.6765 18.6807 100.203 18.4647 100.607 18.0328C101.009 17.6008 101.195 17.1381 101.195 16.6135C101.195 16.0891 101.009 15.6262 100.637 15.1634C100.265 14.7006 99.7383 14.4538 99.0873 14.4538Z" fill="#AAAAAA"/>
<path d="M107.828 22.1672C107.053 22.1672 106.557 22.0129 106.402 21.7352C106.309 21.5501 106.278 21.3958 106.247 21.2724C106.216 21.1181 106.216 20.8713 106.216 20.5628V12.942C106.216 12.6335 106.216 12.3866 106.247 12.2324C106.278 12.109 106.309 11.9239 106.402 11.7387C106.557 11.461 107.053 11.3376 107.859 11.3376C108.479 11.3376 108.913 11.4302 109.161 11.6462C109.347 11.8004 109.44 12.0473 109.471 12.3866C109.471 12.5409 109.502 12.726 109.502 13.0037V20.5628C109.502 20.8713 109.502 21.1181 109.471 21.2724C109.44 21.3958 109.409 21.5809 109.285 21.766C109.13 22.0129 108.603 22.1672 107.828 22.1672ZM107.828 9.2396C107.394 9.2396 107.053 9.20875 106.805 9.11619C106.588 9.05449 106.464 8.96191 106.402 8.80766C106.309 8.62253 106.247 8.46827 106.247 8.31399C106.216 8.15974 106.216 7.91291 106.216 7.60437C106.216 7.29584 106.216 7.04901 106.247 6.89475C106.278 6.77132 106.309 6.61707 106.402 6.43194C106.557 6.15425 107.053 6 107.859 6C108.634 6 109.13 6.15425 109.285 6.43194C109.378 6.61707 109.44 6.8022 109.471 6.9256C109.502 7.07986 109.502 7.32669 109.502 7.63522C109.502 7.94376 109.502 8.19059 109.471 8.34484C109.44 8.46827 109.409 8.65338 109.316 8.80766C109.254 8.96191 109.099 9.05449 108.882 9.11619C108.603 9.20875 108.262 9.2396 107.828 9.2396Z" fill="#AAAAAA"/>
<path d="M116.971 22.2906C116.692 22.2906 116.444 22.2289 116.196 22.1055C115.948 21.982 115.793 21.8278 115.7 21.7043L115.514 21.4575L111.019 13.775C110.678 13.2197 110.616 12.9112 110.616 12.726C110.616 12.2941 110.957 11.893 111.608 11.4919C112.228 11.1216 112.6 11.0599 112.786 11.0599C113.034 11.0599 113.22 11.1216 113.344 11.2759C113.499 11.461 113.685 11.7387 113.871 12.0781L116.723 17.5083C116.754 17.6008 116.847 17.6626 116.971 17.6626C117.095 17.6626 117.157 17.6008 117.219 17.5083L120.071 12.0781C120.226 11.8313 120.35 11.6153 120.412 11.4919C120.474 11.3993 120.567 11.3068 120.722 11.1834C120.846 11.0908 121.032 11.0599 121.249 11.0599C121.404 11.0599 121.745 11.1216 122.303 11.461C122.954 11.8621 123.295 12.2632 123.295 12.6643C123.295 12.8186 123.233 13.158 122.892 13.7133L118.397 21.365C118.273 21.5809 118.087 21.766 117.777 21.9203C117.498 22.198 117.219 22.2906 116.971 22.2906Z" fill="#AAAAAA"/>
<path d="M129.307 22.4448C128.284 22.4448 127.354 22.2597 126.548 21.9203C125.773 21.5809 125.153 21.1181 124.719 20.5319C123.851 19.4212 123.417 18.1562 123.417 16.7678C123.417 15.04 123.975 13.6516 125.091 12.6026C126.208 11.5536 127.633 11.0291 129.338 11.0291C131.26 11.0291 132.656 11.677 133.555 13.0346C134.02 13.7442 134.237 14.5155 134.237 15.3486C134.237 16.1507 134.022 16.6473 133.698 16.9757C133.374 17.3041 132.693 17.6534 132.376 17.6934C132.06 17.7334 127.231 17.6934 127.231 17.6934C127.075 17.6934 126.952 17.8168 126.952 17.9711C126.952 18.4647 127.231 18.8967 127.789 19.2052C128.315 19.5137 128.842 19.6372 129.338 19.6372C130.207 19.6372 130.888 19.5446 131.416 19.3595L131.664 19.2669C132.004 19.1127 132.253 19.0509 132.439 19.0509C132.78 19.0509 133.121 19.3286 133.4 19.884C133.555 20.2234 133.648 20.5319 133.648 20.7479C133.679 21.8894 132.19 22.4448 129.307 22.4448ZM129.277 13.9601C128.749 13.9601 128.222 14.1761 127.696 14.6081C127.168 15.04 126.92 15.5337 126.92 16.0273C126.92 16.1816 127.045 16.305 127.199 16.305H129.928C130.609 16.305 131.012 15.9656 131.012 15.3486C131.012 14.9475 130.858 14.6081 130.547 14.3304C130.237 14.0836 129.803 13.9601 129.277 13.9601Z" fill="#AAAAAA"/>
<path d="M139.133 22.3523C137.8 22.3523 136.498 21.9512 135.258 21.1799C135.072 21.0565 134.979 20.8714 134.979 20.5937C134.979 20.3777 135.103 19.9149 135.754 19.051C135.816 18.9276 135.971 18.8042 136.312 18.8042C136.529 18.8042 136.932 18.8967 137.614 19.2978C138.265 19.6681 138.854 19.8532 139.381 19.8532C139.784 19.8532 140.962 19.8532 140.962 19.0818C140.962 18.5265 140.125 18.3414 139.288 18.2179C138.42 18.0945 137.552 17.7552 136.684 17.2306C136.312 17.0147 136.002 16.6136 135.754 16.1199C135.506 15.5954 135.382 14.9783 135.382 14.2687C135.382 12.1398 136.839 11.1217 139.815 11.1217C140.807 11.1217 141.83 11.3685 142.884 11.8313C143.287 12.0164 143.504 12.2324 143.504 12.4484C143.504 12.7569 143.349 13.1271 143.07 13.59C142.884 13.8676 142.605 14.2379 142.326 14.2379C142.264 14.2379 142.047 14.207 141.458 13.9293C140.962 13.7134 140.404 13.59 139.815 13.59C139.443 13.59 138.265 13.59 138.265 14.3304C138.265 15.1943 139.536 15.3794 139.97 15.4412C140.9 15.5337 141.799 15.8114 142.667 16.2433C143.039 16.4285 143.349 16.737 143.597 17.1998C143.845 17.6626 144 18.2488 144 18.9276C144 19.6372 143.876 20.2234 143.597 20.7171C143.349 21.1799 142.977 21.5501 142.512 21.797C141.613 22.1363 140.466 22.3523 139.133 22.3523Z" fill="#AAAAAA"/>
<path fill-rule="evenodd" clip-rule="evenodd" d="M23.1908 10.6252C23.6558 9.81966 24.6864 9.54396 25.4911 10.0085C26.2965 10.4735 26.5716 11.5027 26.107 12.3091L19.2746 24.212C14.4009 32.6534 6.07872 27.3634 6.07872 27.3634C1.7218 24.848 1.12294 18.43 1.12294 18.43C1.12294 18.43 0.364143 13.4585 0.250035 11.6692C0.215027 11.1227 0.146083 10.6927 0.0894359 10.3394C-0.0634092 9.3859 -0.126631 8.99144 0.808424 8.37433C2.57587 7.20892 3.9051 9.18708 3.9051 9.18708C3.9051 9.18708 4.66567 10.2218 5.32125 13.5968C5.57683 14.9137 5.96214 14.4282 5.96214 14.4282L12.8608 2.47929C13.3256 1.6743 14.2063 1.50949 15.0119 1.9746C15.8169 2.43934 16.1561 3.3081 15.6912 4.11336L10.9707 12.2894C10.9707 12.2894 10.9661 12.2974 10.9593 12.3119L7.5078 18.2901C7.32667 18.0683 7.09309 17.8674 6.81551 17.7071C5.8696 17.161 4.77073 17.2934 4.36116 18.0028C3.95155 18.7123 4.38634 19.7301 5.33225 20.2762C6.27813 20.8223 7.37696 20.69 7.78657 19.9806H7.7866L11.9057 12.8461C11.9113 12.8385 11.9142 12.8341 11.9142 12.8341L18.2683 1.82832C18.7329 1.02363 19.698 0.765536 20.5032 1.23046C21.3082 1.6952 21.5619 2.65703 21.0974 3.46173L14.7435 14.4672C14.7435 14.4672 14.5096 14.9468 14.9389 15.1947C15.3716 15.4445 15.6872 15.0121 15.6872 15.0121L21.1336 5.57888C21.5985 4.77363 22.5324 4.47987 23.3382 4.94494C24.1428 5.40953 24.4283 6.40751 23.9634 7.2128L18.5169 16.6465C18.5169 16.6465 18.5113 16.6556 18.5031 16.6718L15.7524 21.436C15.5656 21.1918 15.3163 20.9702 15.0153 20.7963C14.0694 20.2502 12.9705 20.3826 12.5609 21.092C12.1513 21.8014 12.5861 22.8193 13.532 23.3654C14.4379 23.8884 15.484 23.7891 15.9307 23.1567L15.9348 23.159L15.9841 23.0735L15.9864 23.0697L15.9885 23.0659L21.0974 14.2168L23.1908 10.6252Z" fill="#828EFF"/>
</svg>
