<?xml version="1.0" encoding="UTF-8" standalone="no"?>
<svg width="24px" height="24px" viewBox="0 0 24 24" version="1.1" xmlns="http://www.w3.org/2000/svg" xmlns:xlink="http://www.w3.org/1999/xlink">
    <!-- Generator: sketchtool 50.2 (55047) - http://www.bohemiancoding.com/sketch -->
    <title>51C4CC6B-B208-49B1-A111-1F7496C0118F</title>
    <desc>Created with sketchtool.</desc>
    <defs></defs>
    <g id="Symbols" stroke="none" stroke-width="1" fill="none" fill-rule="evenodd">
        <g id="LinkedIn_icon">
            <rect id="Rectangle" opacity="0.301930147" x="0" y="0" width="24" height="24"></rect>
            <path d="M3.45378151,9.24776362 L6.96204934,9.24776362 L6.96204934,20.3639469 L3.45378151,20.3639469 L3.45378151,9.24776362 Z M16.5475739,9.14090539 C19.0409325,9.14090539 21,10.7398753 21,14.1827596 L21,20.3639469 L17.0218487,20.3639469 L17.0218487,14.6111683 C17.0218487,13.1058824 16.3997289,12.0777989 15.0310653,12.0777989 C13.9844402,12.0777989 13.4023313,12.7716454 13.1315262,13.4401193 C13.0300352,13.6796964 13.0456492,14.0139333 13.0456492,14.3486582 L13.0456492,20.3639469 L9.10458119,20.3639469 C9.10458119,20.3639469 9.15532665,10.1738683 9.10458119,9.24776362 L13.0456492,9.24776362 L13.0456492,10.9921388 C13.2783952,10.2294931 14.5377609,9.14090539 16.5475739,9.14090539 Z M5.14301979,4 C6.43751694,4 7.23334237,4.82998102 7.2587151,5.92735159 C7.2587151,7.00422879 6.43751694,7.85714286 5.11862293,7.85714286 L5.0932502,7.85714286 C3.82363784,7.85714286 3,7.00764435 3,5.93027921 C3,4.83193277 3.84754676,4 5.14301979,4 Z" id="Linkedin" fill="#000000"></path>
        </g>
    </g>
</svg>